<?xml version="1.0" encoding="UTF-8"?>
<svg id="Capa_1" data-name="Capa 1" xmlns="http://www.w3.org/2000/svg" viewBox="0 0 1307.34 728.25">
  <defs>
    <style>
      .cls-1 {
        fill: #05f;
      }
    </style>
  </defs>
  <path class="cls-1" d="M0,0l368.64,69.6c105.84,21.35,176.55,101.81,247.37,175.77,5.17,5.4,14.07,8.52,15.6,17.21l-42.34,40.16-116.84-117.81c-33.57-26.74-71.27-47.58-113.39-57.87L75.22,72.83c43.29,109.95,177.37,94.3,272.27,121.29,84.32,23.98,131.37,101.49,193.46,156.61,1.46,3.32-43.03,47.81-50.26,51.75-68.96-16.95-140.64-21.91-211.1-30.65,12.96,23.69,37.26,46.55,61.61,58.52,25.84,12.7,103.5,28.94,130.13,21.84,7.65-2.04,16.16-7.4,22.31-12.32,100.42-91.69,191.76-201.58,293.03-291.36,45.05-39.94,100.51-68.14,159.71-80.83L1304.51.5c5.55,1,1.38,31.12.63,36.63-8.68,63.88-46.39,118.45-99.01,154.57-7.57,55.11-37.13,99-78.11,135.1-5.83,5.13-19.65,12.18-23.21,17.17-3.75,5.26-7.62,22.93-11.18,31.05-28.16,64.18-84.72,112.57-154.49,126.26-29.28,5.75-57.22,3.72-82.84,23.07l-203.59,203.91c-53.67-56.51-109.73-110.67-164.91-165.7-13.21-13.17-24.47-29.62-40.57-40.17-28.33-18.57-58.82-15.89-90.16-23.46-57.73-13.95-108.76-56.09-136.32-107.91-6.28-11.81-14.99-42.42-20.14-48.97-3.02-3.84-13.64-8.56-18.34-12.44-31.05-25.59-58.32-58.87-71.85-97.24-3.49-9.91-7.72-37.15-11.2-42.53-1.52-2.35-17.9-12.58-22.09-16.37C42.12,141.89,0,80.24,0,31.62V0ZM1232.1,72.84l-277.67,52.68c-50.06,11.41-95.53,36.37-132.82,71.13l-218.05,218.29,50.8,48.73,220.03-222.23c65.9-60.82,160.93-57.44,243.99-77.55,51.66-12.51,92.94-41.2,113.73-91.05ZM437.7,331.54c-32.05-33.76-62.51-69.29-109.51-81.83-49.9-13.31-106.02-16.87-156.57-29.3,20.22,50.59,65.86,83.44,119.1,93.38,39.79,7.43,96.13,15.02,136.4,17.75,3.53.24,7.08,0,10.59,0ZM1135.69,220.41c-48.44,10.81-100.94,15.46-148.82,27.42-53.36,13.33-81.57,45.05-117.26,83.71l158.12-20.1c47.66-11.3,89.74-45.67,107.96-91.03ZM1027.72,371.83c-53,7.21-108.07,10.74-160.73,19.42-37.52,6.18-68.24,16.19-97.67,40.91l-115.09,115.76-5.52-1.57-86.91-88.16-46.62,44.88,139.18,138.83,154.47-155.15c44.31-37.76,73.37-32.01,124.81-44.6,38.84-9.51,74.39-35.81,94.09-70.32Z"/>
</svg>